# xmcd
#
# Track frame offsets: 
#        150
#        37939
#        76470
#        116993
#        150979
#        190935
#        207353
#
# Disc length: 3020 seconds
#
# Revision: 3
# Processed by: cddbd v1.5.2PL0 Copyright (c) Steve Scherf et al.
# Submitted via: ExactAudioCopy v0.99pb5
#
DISCID=540bca07
DTITLE=OceanLab - Miracle [CDr Promo]
DYEAR=2008
DGENRE=Trance
TTITLE0=Miracle (Above and Beyond Club Mix)
TTITLE1=Miracle (Michael Cassette Remix)
TTITLE2=Miracle (Martin Roth Vocal Remix)
TTITLE3=Miracle (Martin Roth Dub Mix)
TTITLE4=Miracle (Fletch Remix)
TTITLE5=Miracle (Above and Beyond Club Mix Radio Edit)
TTITLE6=Miracle (Album Mix Radio Edit)
EXTD=Anjunabeats - ACD017
EXTT0=
EXTT1=
EXTT2=
EXTT3=
EXTT4=
EXTT5=
EXTT6=
PLAYORDER=
